<?xml version="1.0" encoding="utf-8"?>
<!-- Generator: Adobe Illustrator 19.0.0, SVG Export Plug-In . SVG Version: 6.00 Build 0)  -->
<svg version="1.1" id="Layer_1" xmlns="http://www.w3.org/2000/svg" xmlns:xlink="http://www.w3.org/1999/xlink" x="0px" y="0px"
	 viewBox="-172 232 166 49" style="enable-background:new -172 232 166 49;" xml:space="preserve">
<style type="text/css">
	.st0{fill:#FAFAFA;}
	.st1{filter:url(#Adobe_OpacityMaskFilter);}
	.st2{fill:#FFFFFF;}
	.st3{mask:url(#b);fill:#FAFAFA;}
</style>
<g>
	<path class="st0" d="M-172,246.1v0.1l27.9,13.1l28.1-13.2v0l-28.1-13.2L-172,246.1z M-161.9,246.2l17.9-8.4l17.9,8.4l-17.9,8.4
		L-161.9,246.2L-161.9,246.2z M-144.1,264.5l-27.9-12.9v4.8l27.9,13l28.1-13v-4.8L-144.1,264.5z M-144.1,274.2l-27.9-12.9v4.8
		l27.9,13l28.1-13v-4.8L-144.1,274.2z"/>
	<g transform="translate(72)">
		<defs>
			<filter id="Adobe_OpacityMaskFilter" filterUnits="userSpaceOnUse" x="-172" y="232" width="94" height="48.3">
				<feColorMatrix  type="matrix" values="1 0 0 0 0  0 1 0 0 0  0 0 1 0 0  0 0 0 1 0"/>
			</filter>
		</defs>
		<mask maskUnits="userSpaceOnUse" x="-172" y="232" width="94" height="48.3" id="b">
			<g class="st1">
				<path id="a" class="st2" d="M-172,232h94v48.3h-94L-172,232z"/>
			</g>
		</mask>
		<path class="st3" d="M-84.4,256.2c0-2.1-0.8-4.1-2.2-5.6c-0.7-0.7-1.5-1.3-2.3-1.7c-0.9-0.4-1.9-0.6-2.8-0.6c-1,0-2,0.2-2.9,0.6
			c-0.9,0.4-1.7,1-2.3,1.7c-1.4,1.5-2.2,3.5-2.2,5.6c0,2.1,0.8,4.1,2.2,5.6c0.7,0.7,1.5,1.3,2.3,1.7c0.9,0.4,1.9,0.6,2.9,0.6
			c1,0,2-0.2,2.9-0.6c0.9-0.4,1.7-1,2.3-1.7C-85.2,260.2-84.4,258.2-84.4,256.2L-84.4,256.2z M-78,256.2c0,1.9-0.4,3.7-1.1,5.4
			c-0.7,1.6-1.7,3.1-2.9,4.3c-1.2,1.2-2.7,2.2-4.4,2.9c-1.7,0.7-3.5,1-5.4,1c-1.9,0-3.7-0.3-5.3-1c-1.6-0.7-3.1-1.6-4.4-2.9
			c-1.3-1.2-2.3-2.7-2.9-4.3c-0.7-1.6-1.1-3.4-1.1-5.3c0-1.9,0.4-3.6,1.1-5.3c0.7-1.6,1.7-3.1,3-4.3c1.3-1.2,2.7-2.2,4.4-2.9
			c1.7-0.7,3.5-1.1,5.3-1c1.9,0,3.7,0.4,5.4,1c1.7,0.7,3.1,1.6,4.4,2.9c1.2,1.2,2.2,2.6,2.9,4.3C-78.4,252.5-78,254.3-78,256.2z
			 M-107.7,268.9c-0.5,0.3-1.1,0.4-1.7,0.6c-0.6,0.1-1.3,0.2-2,0.2c-0.9,0-1.8-0.1-2.7-0.4c-0.8-0.2-1.6-0.7-2.3-1.2
			c-0.7-0.6-1.2-1.3-1.6-2.2c-0.4-0.9-0.6-2-0.6-3.3V232h6.5v29.5c0,1.1,0.2,1.8,0.6,2.2c0.4,0.4,0.9,0.6,1.5,0.6
			c0.7,0,1.5-0.2,2.1-0.7C-107.7,263.6-107.7,268.9-107.7,268.9z M-121.5,243.2l-11.6,30.6c-0.9,2.3-2,3.9-3.4,5
			c-1.4,1-3.1,1.5-5,1.5c-0.3,0-0.6,0-1-0.1c-0.3,0-0.7-0.1-1-0.2l-2.1-6c0.5,0.2,1,0.4,1.6,0.6c0.5,0.1,1,0.2,1.5,0.2
			c1,0,1.9-0.2,2.8-0.7c0.8-0.5,1.5-1.3,1.9-2.6l0.9-2.6l-9.9-25.8h7l5.9,16.6l5.6-16.6L-121.5,243.2L-121.5,243.2z M-148.5,239.3
			h-16.8v8.3h16.5v5.6h-16.5V269h-6.8v-35.6h23.5L-148.5,239.3L-148.5,239.3z"/>
	</g>
</g>
</svg>
